<svg version="1.1" id="Layer_1" xmlns="http://www.w3.org/2000/svg" xmlns:xlink="http://www.w3.org/1999/xlink" x="0px" y="0px"
	 width="100%" viewBox="0 0 512 512" enable-background="new 0 0 512 512" xml:space="preserve">
<path fill="#000000" opacity="1.000000" stroke="none" 
	d="
M245.000000,513.000000 
	C163.353134,513.000000 82.206268,513.000000 1.029702,513.000000 
	C1.029702,342.394775 1.029702,171.789551 1.029702,1.092157 
	C171.563553,1.092157 342.127167,1.092157 512.845398,1.092157 
	C512.845398,171.666565 512.845398,342.333252 512.845398,513.000000 
	C423.789520,513.000000 334.644745,513.000000 245.000000,513.000000 
M162.947495,338.506073 
	C184.035294,285.157440 205.123108,231.808777 226.210907,178.460114 
	C226.421616,178.562973 226.632309,178.665833 226.843018,178.768692 
	C226.843018,232.186096 226.843018,285.603516 226.843018,339.179138 
	C218.412994,341.198029 210.215668,343.161224 202.197037,345.081604 
	C202.197037,348.523499 202.197037,351.575989 202.197037,354.610168 
	C228.511047,354.610168 254.442368,354.610168 280.620819,354.610168 
	C280.620819,351.449829 280.620819,348.511169 280.620819,345.172058 
	C271.918915,343.149475 263.100830,341.099915 254.185471,339.027740 
	C254.185471,285.274994 254.162674,231.963821 254.325516,178.653229 
	C254.329346,177.404633 256.215302,175.408798 257.570129,175.041870 
	C265.240936,172.964417 273.017609,171.277832 280.929138,169.417984 
	C280.929138,166.178726 280.929138,163.135757 280.929138,159.825516 
	C261.828186,159.825516 243.022629,159.945435 224.221252,159.718689 
	C220.698715,159.676193 219.356094,160.942596 218.174072,163.972397 
	C201.821655,205.887054 185.358490,247.758499 168.910049,289.635651 
	C164.759201,300.203583 160.564835,310.754395 155.980774,322.349365 
	C154.978775,319.908478 154.431931,318.594177 153.898544,317.274445 
	C133.244095,266.170685 112.563805,215.077316 92.005096,163.935074 
	C90.777176,160.880447 89.406868,159.620804 85.922340,159.722443 
	C75.933327,160.013885 65.930305,159.825394 55.932789,159.825500 
	C48.820145,159.825562 41.707504,159.825516 34.201172,159.825516 
	C34.201172,161.475037 34.374313,162.641693 34.170940,163.738541 
	C33.330105,168.273407 35.371750,170.233185 39.713413,171.123764 
	C44.086712,172.020844 48.254906,173.885483 52.610634,174.911591 
	C55.647385,175.626968 56.389965,177.116837 56.384762,180.096893 
	C56.294579,231.750565 56.288357,283.404480 56.392410,335.058105 
	C56.399162,338.410034 55.360176,339.583893 52.089600,340.224274 
	C45.146385,341.583740 38.316959,343.524323 31.712658,345.159363 
	C31.712658,348.673065 31.712658,351.603699 31.712658,354.519806 
	C53.286282,354.519806 74.522545,354.519806 95.806290,354.519806 
	C95.806290,351.220642 95.806290,348.247314 95.806290,345.157288 
	C87.153610,343.120026 78.622276,341.111328 70.134933,339.112976 
	C70.134933,285.292450 70.134933,231.893417 70.134933,178.494370 
	C71.237236,179.392365 71.702545,180.515793 72.149925,181.646332 
	C94.082031,237.069046 116.089333,292.462341 137.817902,347.964752 
	C139.863831,353.190765 142.158188,355.443024 148.040817,355.003113 
	C156.452042,354.374084 156.484467,354.841919 159.545975,347.100494 
	C160.583893,344.475983 161.638962,341.858276 162.947495,338.506073 
M382.500061,159.829453 
	C364.418762,159.829453 346.337463,159.829453 328.330566,159.829453 
	C328.330566,163.423584 328.330566,166.348648 328.330566,169.380035 
	C336.702972,171.425507 344.842621,173.414124 352.659119,175.323761 
	C352.659119,230.436035 352.659119,284.991699 352.659119,339.466156 
	C344.254639,341.424835 336.215607,343.298370 328.271362,345.149811 
	C328.271362,348.490631 328.271362,351.433075 328.271362,354.839020 
	C339.269226,354.839020 350.057220,355.017700 360.837341,354.802887 
	C385.467438,354.312103 410.111755,354.017883 434.714569,352.874725 
	C448.994415,352.211273 461.090729,346.083221 471.124664,335.464630 
	C488.847504,316.709167 490.264496,271.687439 452.815430,259.015930 
	C445.287659,256.468781 437.407654,254.962769 429.856750,253.019638 
	C430.663055,252.774323 431.862579,252.425888 433.051636,252.044876 
	C440.761230,249.574509 448.978973,248.091919 456.086121,244.445526 
	C483.361206,230.451660 485.895355,190.593735 461.012665,172.614105 
	C452.731964,166.630692 443.269409,163.028778 433.313568,162.180328 
	C416.762512,160.769867 400.109924,160.550476 382.500061,159.829453 
z"/>
<path fill="#FBFBFB" opacity="1.000000" stroke="none" 
	d="
M162.816864,338.871765 
	C161.638962,341.858276 160.583893,344.475983 159.545975,347.100494 
	C156.484467,354.841919 156.452042,354.374084 148.040817,355.003113 
	C142.158188,355.443024 139.863831,353.190765 137.817902,347.964752 
	C116.089333,292.462341 94.082031,237.069046 72.149925,181.646332 
	C71.702545,180.515793 71.237236,179.392365 70.134933,178.494370 
	C70.134933,231.893417 70.134933,285.292450 70.134933,339.112976 
	C78.622276,341.111328 87.153610,343.120026 95.806290,345.157288 
	C95.806290,348.247314 95.806290,351.220642 95.806290,354.519806 
	C74.522545,354.519806 53.286282,354.519806 31.712658,354.519806 
	C31.712658,351.603699 31.712658,348.673065 31.712658,345.159363 
	C38.316959,343.524323 45.146385,341.583740 52.089600,340.224274 
	C55.360176,339.583893 56.399162,338.410034 56.392410,335.058105 
	C56.288357,283.404480 56.294579,231.750565 56.384762,180.096893 
	C56.389965,177.116837 55.647385,175.626968 52.610634,174.911591 
	C48.254906,173.885483 44.086712,172.020844 39.713413,171.123764 
	C35.371750,170.233185 33.330105,168.273407 34.170940,163.738541 
	C34.374313,162.641693 34.201172,161.475037 34.201172,159.825516 
	C41.707504,159.825516 48.820145,159.825562 55.932789,159.825500 
	C65.930305,159.825394 75.933327,160.013885 85.922340,159.722443 
	C89.406868,159.620804 90.777176,160.880447 92.005096,163.935074 
	C112.563805,215.077316 133.244095,266.170685 153.898544,317.274445 
	C154.431931,318.594177 154.978775,319.908478 155.980774,322.349365 
	C160.564835,310.754395 164.759201,300.203583 168.910049,289.635651 
	C185.358490,247.758499 201.821655,205.887054 218.174072,163.972397 
	C219.356094,160.942596 220.698715,159.676193 224.221252,159.718689 
	C243.022629,159.945435 261.828186,159.825516 280.929138,159.825516 
	C280.929138,163.135757 280.929138,166.178726 280.929138,169.417984 
	C273.017609,171.277832 265.240936,172.964417 257.570129,175.041870 
	C256.215302,175.408798 254.329346,177.404633 254.325516,178.653229 
	C254.162674,231.963821 254.185471,285.274994 254.185471,339.027740 
	C263.100830,341.099915 271.918915,343.149475 280.620819,345.172058 
	C280.620819,348.511169 280.620819,351.449829 280.620819,354.610168 
	C254.442368,354.610168 228.511047,354.610168 202.197037,354.610168 
	C202.197037,351.575989 202.197037,348.523499 202.197037,345.081604 
	C210.215668,343.161224 218.412994,341.198029 226.843018,339.179138 
	C226.843018,285.603516 226.843018,232.186096 226.843018,178.768692 
	C226.632309,178.665833 226.421616,178.562973 226.210907,178.460114 
	C205.123108,231.808777 184.035294,285.157440 162.816864,338.871765 
z"/>
<path fill="#FCFCFC" opacity="1.000000" stroke="none" 
	d="
M383.000092,159.829453 
	C400.109924,160.550476 416.762512,160.769867 433.313568,162.180328 
	C443.269409,163.028778 452.731964,166.630692 461.012665,172.614105 
	C485.895355,190.593735 483.361206,230.451660 456.086121,244.445526 
	C448.978973,248.091919 440.761230,249.574509 433.051636,252.044876 
	C431.862579,252.425888 430.663055,252.774323 429.856750,253.019638 
	C437.407654,254.962769 445.287659,256.468781 452.815430,259.015930 
	C490.264496,271.687439 488.847504,316.709167 471.124664,335.464630 
	C461.090729,346.083221 448.994415,352.211273 434.714569,352.874725 
	C410.111755,354.017883 385.467438,354.312103 360.837341,354.802887 
	C350.057220,355.017700 339.269226,354.839020 328.271362,354.839020 
	C328.271362,351.433075 328.271362,348.490631 328.271362,345.149811 
	C336.215607,343.298370 344.254639,341.424835 352.659119,339.466156 
	C352.659119,284.991699 352.659119,230.436035 352.659119,175.323761 
	C344.842621,173.414124 336.702972,171.425507 328.330566,169.380035 
	C328.330566,166.348648 328.330566,163.423584 328.330566,159.829453 
	C346.337463,159.829453 364.418762,159.829453 383.000092,159.829453 
M380.057922,328.496979 
	C380.057922,333.620209 380.057922,338.743408 380.057922,344.921173 
	C393.956818,344.177429 407.509766,344.481445 420.720581,342.502075 
	C440.128113,339.594269 449.835602,330.493225 452.284332,313.087738 
	C453.504425,304.415375 452.617676,295.156982 451.056671,286.455627 
	C449.063599,275.345947 441.432709,268.085297 430.937775,264.154999 
	C414.423462,257.970520 397.249786,260.373291 380.057922,259.926666 
	C380.057922,282.896667 380.057922,305.197510 380.057922,328.496979 
M380.056580,182.515442 
	C380.056580,204.598511 380.056580,226.681595 380.056580,247.984497 
	C391.853333,247.984497 403.055847,248.795883 414.095825,247.801773 
	C432.445740,246.149460 444.345764,235.797256 447.465515,219.308243 
	C448.650421,213.045624 448.505402,206.377365 447.972473,199.976746 
	C446.951263,187.711945 440.237213,179.372711 428.624908,175.182419 
	C412.959015,169.529358 396.697998,169.903748 380.540833,170.213104 
	C380.302032,170.927490 380.117126,171.227402 380.113922,171.529266 
	C380.078552,174.860580 380.071411,178.192200 380.056580,182.515442 
z"/>
<path fill="#010101" opacity="1.000000" stroke="none" 
	d="
M380.057922,327.997681 
	C380.057922,305.197510 380.057922,282.896667 380.057922,259.926666 
	C397.249786,260.373291 414.423462,257.970520 430.937775,264.154999 
	C441.432709,268.085297 449.063599,275.345947 451.056671,286.455627 
	C452.617676,295.156982 453.504425,304.415375 452.284332,313.087738 
	C449.835602,330.493225 440.128113,339.594269 420.720581,342.502075 
	C407.509766,344.481445 393.956818,344.177429 380.057922,344.921173 
	C380.057922,338.743408 380.057922,333.620209 380.057922,327.997681 
z"/>
<path fill="#020202" opacity="1.000000" stroke="none" 
	d="
M380.056580,182.019592 
	C380.071411,178.192200 380.078552,174.860580 380.113922,171.529266 
	C380.117126,171.227402 380.302032,170.927490 380.540833,170.213104 
	C396.697998,169.903748 412.959015,169.529358 428.624908,175.182419 
	C440.237213,179.372711 446.951263,187.711945 447.972473,199.976746 
	C448.505402,206.377365 448.650421,213.045624 447.465515,219.308243 
	C444.345764,235.797256 432.445740,246.149460 414.095825,247.801773 
	C403.055847,248.795883 391.853333,247.984497 380.056580,247.984497 
	C380.056580,226.681595 380.056580,204.598511 380.056580,182.019592 
z"/>
</svg>